<?xml version="1.0" encoding="utf-8"?>
<!-- Generator: Adobe Illustrator 22.1.0, SVG Export Plug-In . SVG Version: 6.00 Build 0)  -->
<svg version="1.1" id="Layer_1" xmlns="http://www.w3.org/2000/svg" xmlns:xlink="http://www.w3.org/1999/xlink" x="0px" y="0px"
	 viewBox="0 0 512 512" style="enable-background:new 0 0 512 512;" xml:space="preserve">
<style type="text/css">
	.st0{fill:#FFFFFF;}
</style>
<g>
	<path class="st0" d="M329.5,188.8c-21.5,1.9-38.9,19.3-40.8,40.8c-2.5,28.1,20.9,51.5,49,49c21.5-1.9,38.9-19.3,40.8-40.8
		C381,209.8,357.6,186.3,329.5,188.8z"/>
	<path class="st0" d="M173.6,188.8c-21.5,1.9-38.9,19.3-40.8,40.8c-2.5,28.1,20.9,51.5,49,49c21.5-1.9,38.9-19.3,40.8-40.8
		C225.2,209.8,201.7,186.3,173.6,188.8z"/>
	<path class="st0" d="M256,0C114.6,0,0,114.6,0,256s114.6,256,256,256s256-114.6,256-256S397.4,0,256,0z M443.3,369.9l-3,2.3
		c-41.3,32-96.5,48.5-131.3,52.9l-4.5,0.6c-1.5,0.2-2.9-0.7-3.4-2L278.6,363c-0.7-1.9,0.5-3.9,2.5-4.2l6.9-1.1
		c24.2-3.8,58.6-13.8,87.4-40c0.6-0.6,0-1.6-0.8-1.3c-2.4,0.9-4.9,1.9-7.6,2.9c-6.6,2.6-13.3,5.2-17.7,6.3
		c-31.1,7.4-62.6,11.1-93.6,11.1l0-0.6h-0.1v0.6c-31.1,0-62.6-3.7-93.7-11.1c-4.4-1.1-11.2-3.7-17.7-6.3c-2.7-1-5.3-2.1-7.6-2.9
		c-0.8-0.3-1.4,0.7-0.8,1.3c29,26.3,63.2,36.3,87.4,40.1l6.9,1.1c2,0.3,3.2,2.4,2.5,4.3l-22.6,60.4c-0.5,1.4-1.9,2.2-3.4,2l-4.5-0.6
		c-34.7-4.4-90-20.8-131.3-52.9l-3-2.3l-0.4-3.7c-8-71.2-0.5-185,25.9-251.9l1.3-3.2c0-0.1,0.1-0.2,0.2-0.2l3.1-1.4
		c25.8-11.7,62.3-14.6,94.5-15.9h39.3c0.4,0,0.5,0.6,0.2,0.7l-77.2,35.7c-0.4,0.2-0.2,0.8,0.3,0.7c33.4-8.7,67.2-13.1,100.6-13.1
		c33.5,0,67.3,4.4,100.9,13.2c0.5,0.1,0.7-0.5,0.3-0.7l-74.6-35.8c-0.4-0.2-0.2-0.7,0.2-0.7h36.3c32.2,1.3,68.7,4.2,94.5,15.9
		l3.1,1.4c0.1,0,0.2,0.1,0.2,0.2l1.3,3.2c26.4,67,33.9,180.7,25.9,251.9L443.3,369.9z"/>
</g>
</svg>
