<svg xmlns="http://www.w3.org/2000/svg" xmlns:xlink="http://www.w3.org/1999/xlink" viewBox="0 0 1024 1024"><defs><style>.cls-1{fill:#fff;}</style><symbol id="New_Symbol" data-name="New Symbol" viewBox="0 0 397.45 397.33"><path class="cls-1" d="M312.77,197.53a115.6,115.6,0,0,0-8.45-24.42L316.19,64.82,252.36,92.9,198.73,0,145.36,92.44,82.57,64.82,94.2,170.93a115.92,115.92,0,0,0-9.5,26.57L0,344.2H144.79l-.06,20.63a3,3,0,0,0,1.5,2.61l51.08,29.49a3,3,0,0,0,1.5.4,2.86,2.86,0,0,0,.77-.1.84.84,0,0,0,.14-.06,2.71,2.71,0,0,0,.59-.24h0l50.75-29.5a3,3,0,0,0,1.49-2.58l.06-20.65H397.45Zm-60-93.89,4.6-2,47-20.66-8.47,77.34a118.65,118.65,0,0,0-28.73-29.76q-4.49-3.25-9.29-6.09a116.12,116.12,0,0,0-23.69-10.62l14-6.16ZM198.73,20l44.42,77-25,11a117.56,117.56,0,0,0-37.92-.16L154.57,96.49Zm-58.4,81.15,4.6,2,4.61,2L164,111.58a115.58,115.58,0,0,0-24.44,10.87q-4.79,2.82-9.28,6.06a119,119,0,0,0-27.61,28.14L94.4,81Zm-46.21,100a106.26,106.26,0,0,1,8.45-24.64,107,107,0,0,1,192.31,0,106.81,106.81,0,0,1-42.18,138.9l0-9.29h0a2.83,2.83,0,0,0-.06-.42c0-.12,0-.25,0-.36a1.83,1.83,0,0,0-.14-.35,2.06,2.06,0,0,0-.16-.37,2.17,2.17,0,0,0-.23-.3,2.43,2.43,0,0,0-.24-.32,3.3,3.3,0,0,0-.62-.48l-18.59-10.73a32.52,32.52,0,0,0,22.42-17.17h27a2,2,0,1,0,0-4H256.76a32.35,32.35,0,0,0,1.7-8.56h23.62a2,2,0,0,0,0-4H258.46a32.35,32.35,0,0,0-1.7-8.56h25.32a2,2,0,0,0,0-4h-27a32.37,32.37,0,0,0-45.82-13.08,29.38,29.38,0,0,0-20.84-.08,32.39,32.39,0,0,0-46.11,13.16H115.38a2,2,0,1,0,0,4h25.25a31.92,31.92,0,0,0-1.65,8.56h-23.6a2,2,0,0,0,0,4H139a32.41,32.41,0,0,0,1.76,8.56H115.38a2,2,0,0,0,0,4h27.11a32.48,32.48,0,0,0,22.61,17l-18.7,10.87h0a1.28,1.28,0,0,0-.26.2,2,2,0,0,0-.36.28,2.88,2.88,0,0,0-.22.27c-.08.11-.18.22-.25.34a2.52,2.52,0,0,0-.15.34,3,3,0,0,0-.15.38,1.58,1.58,0,0,0-.05.38,2.63,2.63,0,0,0-.06.39l0,9.38A106.87,106.87,0,0,1,94.12,201.18Zm152.5,143-.05,18.91-44.75,26L202,344.2l0-6.84L212,331.51l5.19-3,29.48-17.14,0,7.36,0,11.07v4.41Zm-75.25-72.56H151.68a22.26,22.26,0,0,1-2.65-8.56h22.39a2,2,0,0,0,0-4H149a22.17,22.17,0,0,1,2.48-8.56h19.84a2,2,0,0,0,2-2,2,2,0,0,0-2-2H154.15a22.37,22.37,0,0,1,24.28-6.87,21.22,21.22,0,0,1,2,.8c.66.3,1.31.63,1.93,1a22.37,22.37,0,0,1,0,38.9c-.62.36-1.27.69-1.93,1s-1.35.56-2,.8a22.35,22.35,0,0,1-23.94-6.49h16.83a2,2,0,0,0,2-2A2,2,0,0,0,171.37,271.64Zm54.76-21.12h19.75a22.38,22.38,0,0,1,2.56,8.56H226.06a2,2,0,0,0,0,4h22.41a22.38,22.38,0,0,1-2.56,8.56h-19.8a2,2,0,0,0,0,4h17a22.34,22.34,0,0,1-24.25,6.63,20.37,20.37,0,0,1-2-.82q-1-.45-1.92-1a22.39,22.39,0,0,1,.26-38.91c.63-.35,1.28-.68,2-1a21.15,21.15,0,0,1,2-.79,22.36,22.36,0,0,1,24,6.73h-17a2,2,0,0,0-1.43.61,2,2,0,0,0,1.43,3.39Zm-49.32,42.29,19.47-11.32,2.37-1.38,2.35,1.36,20.11,11.61,22.63,13.07h0L202.66,330,199,332.17h0L195.29,330l-41.41-23.91Zm22-49.09a32.77,32.77,0,0,0-6.41-7.43,25.58,25.58,0,0,1,6.35-.8,25,25,0,0,1,6.51.85A32.73,32.73,0,0,0,198.79,243.72Zm-48,100.48,0-10,0-4.4,0-11,0-7.44,29.89,17.26,15.2,8.77h0l0,6.84-.13,44.94-45.09-26Zm-133.47-10L81.85,222.44c0,.26,0,.51,0,.77a117,117,0,0,0,63,103.69l0,7.3Zm235.35-7.32a117,117,0,0,0,63-103.67c0-.26,0-.51,0-.76L380.13,334.2H252.65Z"/><circle class="cls-1" cx="166.76" cy="198.16" r="6.85" transform="translate(-29.59 29.27) rotate(-9.22)"/><circle class="cls-1" cx="230.7" cy="198.21" r="6.85" transform="translate(-39.37 58.31) rotate(-13.28)"/></symbol></defs><title>kittenmeatz-logo</title><g id="graphic"><use id="New_Symbol-3" data-name="New Symbol" width="397.45" height="397.33" transform="translate(114.55 114.67) scale(2)" xlink:href="#New_Symbol"/></g></svg>