<svg id="Capa_1" data-name="Capa 1" xmlns="http://www.w3.org/2000/svg" viewBox="0 0 512 352"><defs><style>.cls-1{fill:#fff;}</style></defs><title>youtube</title><path class="cls-1" d="M490.2,113.9c-13.9-24.7-29-29.2-59.6-31-30.7-2-107.8-2.9-174.5-2.9-66.9,0-144,.9-174.7,2.9-30.6,1.8-45.7,6.3-59.7,31C7.4,138.6,0,181.1,0,255.9v.3c0,74.5,7.4,117.3,21.7,141.7,14,24.7,29.1,29.2,59.7,31.3,30.7,1.8,107.8,2.8,174.7,2.8s143.9-1.1,174.6-2.8c30.7-2.1,45.8-6.6,59.6-31.3,14.4-24.4,21.7-67.2,21.7-141.7v-.3C512,181.1,504.7,138.6,490.2,113.9ZM192,352V160l160,96Z" transform="translate(0 -80)"/></svg>